<?xml version="1.0" encoding="UTF-8"?>
<svg width="175px" height="32px" viewBox="0 0 175 32" version="1.1" xmlns="http://www.w3.org/2000/svg" xmlns:xlink="http://www.w3.org/1999/xlink">
    <title>logo</title>
    <g id="Page-1" stroke="none" stroke-width="1" fill="none" fill-rule="evenodd">
        <g id="logo" fill="#00811F" fill-rule="nonzero">
            <g id="Group" transform="translate(87.446970, 15.610795) scale(-1, 1) rotate(-180.000000) translate(-87.446970, -15.610795) ">
                <path d="M63.0265152,30.3863636 C64.75,27.8276515 64.8958333,23.5056818 63.3579545,20.4564394 C62.8806818,19.5018939 61.8200758,18.2291667 60.9715909,17.6060606 C60.6136364,17.3276515 60.3219697,17.0625 60.3219697,16.9962121 C60.3219697,16.9166667 61.3030303,15.1666667 62.4962121,13.0719697 C63.6893939,10.9905303 64.75,9.09469697 64.8693182,8.86931818 L65.0814394,8.47159091 L63.9810606,8.44507576 C62.6685606,8.43181818 61.4090909,8.15340909 60.2954545,7.63636364 C58.7443182,6.93371212 58.6912879,7.11931818 61.0643939,5.09090909 C63.8617424,2.71780303 63.530303,2.90340909 64.2727273,3.24810606 C66.1818182,4.14962121 67.9185606,4.49431818 70.4640152,4.48106061 C71.5643939,4.48106061 72.7443182,4.41477273 73.1155303,4.33522727 C73.4734848,4.25568182 73.7916667,4.20265152 73.8049242,4.21590909 C73.8181818,4.22916667 72.1609848,6.53598485 70.1325758,9.34659091 C68.0909091,12.157197 66.4337121,14.4905303 66.4204545,14.5568182 C66.4204545,14.6098485 66.9375,14.3844697 67.5871212,14.0662879 C70.0265152,12.8465909 74.4545455,11.3087121 78.5511364,10.2613636 C80.2481061,9.82386364 80.6856061,9.66477273 80.3409091,9.63825758 C79.717803,9.5719697 77.1723485,9.83712121 76.032197,10.0890152 C74.0965909,10.5132576 73.6458333,10.4867424 74.2159091,9.96969697 C74.5340909,9.6780303 76.5359848,8.81628788 78.0871212,8.29924242 C81.2424242,7.23863636 85.0871212,7.17234848 87.6325758,8.14015152 C88.8522727,8.60416667 90.4564394,10.0227273 90.2045455,10.4337121 C90.1515152,10.5132576 89.1439394,10.5265152 87.5132576,10.4734848 C85.4450758,10.3939394 84.6496212,10.4204545 83.655303,10.592803 C82.1969697,10.8314394 80.3011364,11.3484848 79.3465909,11.7859848 L78.6969697,12.0776515 L81.2954545,12.2367424 C87.3674242,12.6212121 91.7556818,13.7215909 92.9356061,15.1666667 C93.2670455,15.5511364 93.3333333,15.7632576 93.3333333,16.3068182 C93.3333333,17.0757576 92.9090909,17.8314394 92.2859848,18.1496212 C91.9280303,18.3484848 91.9015152,18.3352273 91.3314394,17.7518939 C90.5492424,16.9564394 89.0378788,15.9223485 87.844697,15.3787879 C85.4848485,14.2784091 83.1515152,13.907197 79.5454545,14.0265152 C76.8806818,14.1193182 75.3295455,14.3579545 73.1950758,15.0075758 C71.6041667,15.4848485 68.4356061,16.6912879 68.0776515,16.9564394 C67.905303,17.0890152 67.9583333,17.2613636 68.5151515,18.3617424 C69.2310606,19.7935606 69.4564394,20.6022727 69.5625,22.219697 C69.6685606,23.7045455 69.4299242,24.9640152 68.8465909,26.157197 C68.0378788,27.7878788 67.0037879,28.6496212 63.0795455,30.8636364 L62.469697,31.2215909 L63.0265152,30.3863636 Z" id="Path"></path>
                <path d="M42.2916667,29.9488636 C41.4299242,29.5776515 40.9526515,28.8882576 41.3768939,28.6231061 C41.4564394,28.5700758 42,28.4507576 42.5700758,28.3579545 C45.3939394,27.8674242 49.6363636,26.0643939 55.8806818,22.6837121 C57.0340909,22.0473485 58.0681818,21.5700758 58.1477273,21.5965909 C58.2405303,21.6231061 58.4791667,22.0075758 58.6780303,22.4318182 C59.0094697,23.1079545 59.0625,23.3333333 59.0625,24.4602273 C59.0625,25.905303 58.8901515,26.5151515 58.3333333,27.0454545 C57.7102273,27.6420455 57.0340909,27.6287879 54.3295455,26.9924242 C53.0435606,26.7007576 51.9166667,26.4488636 51.7973485,26.4488636 C51.6912879,26.4488636 51.0018939,26.8465909 50.2859848,27.3238636 C46.9185606,29.5776515 43.7897727,30.5984848 42.2916667,29.9488636 Z" id="Path"></path>
                <path d="M15.9621212,28.967803 C13.7348485,27.8541667 12.7272727,26.7405303 12.7272727,25.4147727 C12.7272727,24.1420455 13.8409091,23.0549242 16.3598485,21.8617424 C17.0359848,21.5435606 17.6723485,21.2784091 17.7784091,21.2784091 C17.8844697,21.2784091 17.8977273,21.2386364 17.8314394,21.1590909 C17.6060606,20.9337121 14.7291667,20.7083333 13.3901515,20.8143939 C12.7007576,20.8541667 11.2689394,21.0530303 10.2083333,21.2386364 C7.11931818,21.782197 7.29166667,21.782197 7.29166667,21.2651515 C7.29166667,20.907197 7.4375,20.6818182 8.12689394,20.0189394 C8.76325758,19.3825758 9.29356061,19.0378788 10.4734848,18.467803 C13.9337121,16.7840909 17.5,16.0284091 21.5435606,16.1344697 C23.6647727,16.1875 23.8768939,16.2140152 25.0568182,16.625 C26.2632576,17.0359848 28.6893939,18.1628788 29.219697,18.5606061 C29.3655303,18.6666667 29.4318182,18.7992424 29.3787879,18.8522727 C29.1799242,19.0511364 27.7348485,18.905303 26.7140152,18.5738636 C24.6325758,17.8977273 22.8162879,18.0170455 21.8484848,18.8787879 L21.4242424,19.25 L21.7556818,19.3560606 C21.9280303,19.4090909 22.9223485,19.8068182 23.969697,20.2443182 C34.6155303,24.6458333 38.7916667,25.0965909 47.3825758,22.7367424 C49.3181818,22.2064394 50.6041667,21.7556818 49.8484848,21.875 C48.8541667,22.0340909 46.9318182,22.0606061 45.4734848,21.9412879 C41.1117424,21.5833333 37.6117424,20.5890152 33.2102273,18.4280303 C30.7575758,17.2348485 28.7689394,16.0018939 28.1988636,15.3257576 C27.4962121,14.4772727 27.8806818,14.2253788 29.0738636,14.7291667 C30.7708333,15.4450758 31.5795455,15.7102273 32.0700758,15.7102273 C32.7594697,15.7102273 33.7935606,15.3920455 35.1988636,14.7424242 C36.5511364,14.1193182 37.7708333,13.9602273 39.0965909,14.2386364 C40.4223485,14.530303 42.344697,15.5909091 44.6117424,17.3011364 C47.2367424,19.2765152 48.5890152,19.9924242 49.8352273,20.0587121 C50.5113636,20.0852273 50.8295455,20.0454545 51.2007576,19.8465909 L51.7045455,19.5814394 L53.5871212,20.0587121 C54.6344697,20.3106061 55.5227273,20.5625 55.5890152,20.6155303 C55.7215909,20.7348485 50.8693182,23.0814394 48.7215909,23.9431818 C41.7878788,26.7007576 36.2064394,27.4431818 30.8901515,26.3030303 C30.2007576,26.1439394 28.530303,25.6666667 27.1780303,25.2291667 C25.8257576,24.7916667 24.3409091,24.3541667 23.8636364,24.2481061 C22.1799242,23.8901515 19.9128788,24.1022727 18.6003788,24.7386364 C17.2746212,25.375 16.9034091,26.6875 17.5530303,28.4905303 C17.7386364,29.0340909 17.8977273,29.5113636 17.8977273,29.5511364 C17.8977273,29.7897727 17.1420455,29.5511364 15.9621212,28.967803 Z" id="Path"></path>
                <path d="M109.268939,28.8219697 C107.200758,28.4640152 105.715909,26.8465909 105.397727,24.6193182 C105.132576,22.7102273 105.742424,20.4962121 106.789773,19.5681818 C107.638258,18.8257576 108.274621,18.5871212 109.520833,18.5208333 C110.859848,18.4545455 111.390152,18.6003788 112.225379,19.2367424 L112.82197,19.6875 L112.82197,19.157197 L112.82197,18.6268939 L113.683712,18.6268939 L114.545455,18.6268939 L114.545455,21.4109848 L114.545455,24.1950758 L112.092803,24.1950758 L109.640152,24.1950758 L109.640152,23.3996212 L109.640152,22.6041667 L111.018939,22.6041667 C111.787879,22.6041667 112.450758,22.5511364 112.49053,22.4715909 C112.623106,22.2594697 112.304924,21.3049242 111.94697,20.8939394 C111.469697,20.3238636 110.501894,20.0454545 109.613636,20.2310606 C108.168561,20.5492424 107.293561,22.0473485 107.412879,23.9829545 C107.479167,25.0170455 107.797348,25.7727273 108.407197,26.342803 C109.467803,27.3503788 111.350379,27.3636364 112.662879,26.3693182 L113.113636,26.0246212 L113.69697,26.594697 C114.015152,26.9128788 114.280303,27.2310606 114.280303,27.3106061 C114.280303,27.5492424 113.140152,28.3049242 112.38447,28.5700758 C111.50947,28.875 110.170455,28.9810606 109.268939,28.8219697 Z" id="Path"></path>
                <path d="M162.179924,28.092803 L161.344697,27.6155303 L161.344697,26.7670455 L161.344697,25.9185606 L160.681818,25.9185606 L160.018939,25.9185606 L160.018939,25.1231061 L160.018939,24.3276515 L160.681818,24.3276515 L161.344697,24.3276515 L161.344697,22.0075758 C161.344697,19.3693182 161.4375,18.9981061 162.206439,18.6799242 C162.657197,18.4943957 164.195076,18.4280303 164.579545,18.5738636 C164.738636,18.6401515 164.791667,18.8390152 164.791667,19.3693182 L164.791667,20.0852273 L164.221591,20.0852273 C163.267045,20.0852273 163.200758,20.2575758 163.200758,22.4450758 L163.200758,24.3276515 L163.929924,24.3276515 L164.659091,24.3276515 L164.659091,25.1231061 L164.659091,25.9185606 L163.929924,25.9185606 L163.200758,25.9185606 L163.200758,27.2443182 C163.200758,27.9734848 163.160985,28.5700758 163.107955,28.5700758 C163.041667,28.5568182 162.630682,28.344697 162.179924,28.092803 Z" id="Path"></path>
                <path d="M0.570075758,26.8465909 C0.225378788,26.7007576 0,26.3162879 0,25.8655303 C0,25.467803 0.676136364,24.7518939 1.16666667,24.6458333 C2.08143939,24.4469697 3.22159091,24.0094697 3.91098485,23.5984848 C4.33522727,23.3465909 4.69318182,23.1344697 4.71969697,23.1344697 C5.01136364,23.1344697 4.04356061,25.0435606 3.39393939,25.7594697 C2.53219697,26.7007576 1.35227273,27.1515152 0.570075758,26.8465909 Z" id="Path"></path>
                <path d="M118.61553,26.0378788 C117.422348,25.8522727 116.361742,24.8579545 116.003788,23.6117424 C115.897727,23.2405303 115.857955,22.5776515 115.897727,21.9147727 C115.99053,20.2840909 116.507576,19.4356061 117.859848,18.7462121 C118.337121,18.5075758 118.668561,18.4412879 119.596591,18.4412879 C120.590909,18.4412879 120.816288,18.4810606 121.505682,18.8257576 C122.579545,19.3693182 122.645833,19.5284091 122.11553,20.2045455 L121.67803,20.7481061 L121.068182,20.3901515 C120.246212,19.8996212 119.185606,19.8863636 118.549242,20.3238636 C118.138258,20.6155303 117.727273,21.2253788 117.727273,21.5435606 C117.727273,21.6231061 118.602273,21.6761364 120.3125,21.6761364 L122.897727,21.6761364 L122.897727,22.4450758 C122.897727,24.0625 122.274621,25.2159091 121.121212,25.719697 C120.3125,26.0776515 119.49053,26.1837121 118.61553,26.0378788 Z M120.431818,24.3409091 C120.69697,24.1155303 121.068182,23.2935606 120.975379,23.1344697 C120.869318,22.9621212 117.899621,22.9621212 117.793561,23.1344697 C117.700758,23.2935606 118.018939,23.9299242 118.363636,24.2348485 C118.880682,24.6988636 119.941288,24.7518939 120.431818,24.3409091 Z" id="Shape"></path>
                <path d="M139.191288,26.0378788 C137.998106,25.8522727 137.255682,25.282197 136.606061,24.0625 C136.420455,23.7045455 136.354167,23.2935606 136.354167,22.2727273 C136.354167,21.0530303 136.380682,20.8939394 136.751894,20.217803 C137.679924,18.5208333 139.986742,17.8977273 141.935606,18.8125 C142.293561,18.9848485 142.704545,19.2102273 142.837121,19.3162879 C143.089015,19.5151515 143.075758,19.5284091 142.717803,20.032197 C142.505682,20.3106061 142.293561,20.5890152 142.253788,20.655303 C142.200758,20.7083333 141.909091,20.6155303 141.577652,20.4299242 C140.729167,19.9526515 140.106061,19.8731061 139.403409,20.1515152 C138.820076,20.3636364 138.395833,20.8011364 138.223485,21.3844697 L138.130682,21.6761364 L140.742424,21.6761364 L143.354167,21.6761364 L143.287879,22.7765152 C143.248106,23.532197 143.142045,24.0227273 142.943182,24.407197 C142.280303,25.6931818 140.888258,26.3030303 139.191288,26.0378788 Z M140.888258,24.3143939 C141.179924,24.0625 141.484848,23.3996212 141.405303,23.1875 C141.352273,23.0416667 140.994318,23.0018939 139.814394,23.0018939 C138.979167,23.0018939 138.263258,23.0549242 138.223485,23.1079545 C138.143939,23.2537879 138.515152,23.9962121 138.806818,24.2613636 C139.310606,24.7121212 140.371212,24.7386364 140.888258,24.3143939 Z" id="Shape"></path>
                <path d="M147.119318,26.0378788 C145.236742,25.7329545 144.109848,24.0625 144.268939,21.8087121 C144.42803,19.594697 146.270833,18.1363636 148.537879,18.4147727 C149.214015,18.5075758 150.287879,18.9318182 150.791667,19.3162879 C151.043561,19.5151515 151.030303,19.5416667 150.606061,20.1382576 C150.367424,20.469697 150.142045,20.7481061 150.102273,20.7481061 C150.075758,20.7481061 149.876894,20.6287879 149.664773,20.4829545 C149.465909,20.3238636 148.962121,20.1382576 148.577652,20.0587121 C147.941288,19.9261364 147.808712,19.9393939 147.265152,20.2045455 C146.655303,20.4962121 146.350379,20.8143939 146.17803,21.3844697 L146.085227,21.6761364 L148.670455,21.6761364 L151.268939,21.6761364 L151.268939,22.6439394 C151.268939,25.0435606 149.558712,26.4356061 147.119318,26.0378788 Z M148.842803,24.3143939 C149.081439,24.1022727 149.412879,23.4791667 149.412879,23.2007576 C149.412879,23.0284091 149.174242,23.0018939 147.848485,23.0018939 C146.986742,23.0018939 146.244318,23.0416667 146.191288,23.0814394 C146.085227,23.1875 146.549242,24.0890152 146.814394,24.3143939 C147.291667,24.7121212 148.352273,24.7121212 148.842803,24.3143939 Z" id="Shape"></path>
                <path d="M168.304924,26.0511364 C166.607955,25.7727273 165.587121,24.5132576 165.481061,22.5246212 C165.335227,19.9393939 166.714015,18.4412879 169.232955,18.4412879 C170.107955,18.4412879 170.426136,18.5075758 171.022727,18.7859848 C171.420455,18.9848485 171.857955,19.2367424 172.003788,19.342803 C172.242424,19.5284091 172.229167,19.5681818 171.804924,20.1117424 C171.566288,20.4299242 171.354167,20.6950758 171.354167,20.7215909 C171.340909,20.7348485 171.0625,20.6022727 170.744318,20.4166667 C169.895833,19.9393939 169.193182,19.8731061 168.450758,20.1912879 C167.880682,20.4564394 167.310606,21.1060606 167.310606,21.5170455 C167.310606,21.6363636 167.920455,21.6761364 169.895833,21.6761364 L172.481061,21.6761364 L172.481061,22.5776515 C172.467803,23.5984848 172.268939,24.2613636 171.765152,24.9242424 C171.102273,25.7859848 169.630682,26.2632576 168.304924,26.0511364 Z M169.948864,24.3806818 C170.280303,24.1420455 170.67803,23.3333333 170.558712,23.1344697 C170.465909,22.9886364 167.535985,22.9488636 167.403409,23.0814394 C167.257576,23.2272727 167.602273,23.9299242 168,24.2613636 C168.477273,24.6590909 169.458333,24.7253788 169.948864,24.3806818 Z" id="Shape"></path>
                <path d="M127.073864,25.8920455 C126.92803,25.8125 126.609848,25.5738636 126.38447,25.3484848 L125.94697,24.9375 L125.94697,25.4280303 L125.94697,25.9185606 L125.085227,25.9185606 L124.223485,25.9185606 L124.223485,22.2727273 L124.223485,18.6268939 L125.151515,18.6268939 L126.079545,18.6268939 L126.079545,20.8806818 C126.079545,23.7708333 126.251894,24.2481061 127.325758,24.4204545 C127.723485,24.4867424 127.856061,24.4337121 128.200758,24.0890152 L128.598485,23.6912879 L128.598485,21.1590909 L128.598485,18.6268939 L129.592803,18.6268939 L130.587121,18.6268939 L130.587121,21.0132576 C130.587121,23.625 130.666667,24.0094697 131.316288,24.3011364 C131.767045,24.5132576 131.979167,24.5 132.429924,24.2613636 C133,23.969697 133.106061,23.4659091 133.106061,20.9337121 L133.106061,18.6268939 L134.034091,18.6268939 L134.962121,18.6268939 L134.962121,21.5568182 C134.962121,24.3541667 134.948864,24.5132576 134.670455,25.0170455 C134.285985,25.7064394 133.609848,26.0511364 132.655303,26.0511364 C131.767045,26.0511364 131.422348,25.9185606 130.825758,25.4015152 L130.361742,25.0037879 L130.043561,25.3352273 C129.871212,25.5208333 129.566288,25.7594697 129.367424,25.8655303 C128.943182,26.0909091 127.458333,26.1041667 127.073864,25.8920455 Z" id="Path"></path>
                <path d="M155.378788,25.7727273 C155.126894,25.6268939 154.808712,25.3617424 154.689394,25.2159091 C154.464015,24.9242424 154.450758,24.9242424 154.450758,25.4280303 L154.450758,25.9185606 L153.522727,25.9185606 L152.594697,25.9185606 L152.594697,22.2727273 L152.594697,18.6268939 L153.575758,18.6268939 L154.570076,18.6268939 L154.609848,21.1458333 L154.649621,23.6647727 L155.020833,24.0227273 C155.511364,24.5132576 156.412879,24.5397727 156.863636,24.0890152 C157.155303,23.7973485 157.168561,23.6912879 157.208333,21.2121212 L157.248106,18.6268939 L158.242424,18.6268939 L159.223485,18.6268939 L159.223485,21.1193182 C159.210227,24.5397727 159.077652,25.030303 158.030303,25.7594697 C157.433712,26.157197 156.054924,26.1704545 155.378788,25.7727273 Z" id="Path"></path>
                <path d="M53.0700758,14.6893939 L51.7045455,14.344697 L51.7045455,9.74431818 L51.7045455,5.14393939 L50.9488636,4.73295455 C49.7556818,4.10984848 48.7878788,3.87121212 47.5814394,3.9375 C46.6268939,3.97727273 46.5606061,3.96401515 46.7859848,3.77840909 C46.9318182,3.67234848 47.9791667,2.77083333 49.1325758,1.78977273 L51.2272727,0 L52.6325758,0.0132575758 C54.157197,0.0132575758 54.9128788,0.225378788 56.1193182,0.994318182 L56.7424242,1.39204545 L56.7424242,6.36363636 L56.7424242,11.3352273 L55.8143939,13.1912879 C55.125,14.5568182 54.8200758,15.0473485 54.6477273,15.0340909 C54.5284091,15.0208333 53.8125,14.8617424 53.0700758,14.6893939 Z" id="Path"></path>
                <path d="M152.19697,13.1117424 L152.19697,11.1761364 L151.799242,11.5208333 C150.579545,12.5416667 148.537879,12.1837121 147.596591,10.7651515 C146.5625,9.22727273 146.721591,6.60227273 147.92803,5.31628788 C148.431818,4.77272727 149.227273,4.44128788 150.035985,4.44128788 C150.897727,4.44128788 151.348485,4.61363636 151.905303,5.14393939 L152.329545,5.55492424 L152.329545,5.13068182 L152.329545,4.70643939 L153.191288,4.70643939 L154.05303,4.70643939 L154.05303,9.87689394 L154.05303,15.0473485 L153.125,15.0473485 L152.19697,15.0473485 L152.19697,13.1117424 Z M151.255682,10.3541667 C152.037879,9.94318182 152.435606,8.77651515 152.183712,7.59659091 C151.706439,5.42234848 149.293561,5.51515152 148.935606,7.72916667 C148.630682,9.61174242 149.903409,11.0435606 151.255682,10.3541667 Z" id="Shape"></path>
                <path d="M106.060606,9.6780303 L106.060606,4.70643939 L106.988636,4.70643939 L107.903409,4.70643939 L107.943182,6.52272727 L107.982955,8.35227273 L108.685606,8.39204545 C109.096591,8.41856061 109.481061,8.3655303 109.587121,8.27272727 C109.679924,8.19318182 110.25,7.35795455 110.846591,6.41666667 L111.920455,4.70643939 L113.047348,4.70643939 C113.909091,4.70643939 114.13447,4.74621212 114.068182,4.87878788 C114.001894,4.95833333 113.471591,5.79356061 112.861742,6.72159091 C112.251894,7.66287879 111.761364,8.44507576 111.761364,8.48484848 C111.761364,8.52462121 111.840909,8.55113636 111.933712,8.55113636 C112.371212,8.55113636 113.246212,9.38636364 113.577652,10.1022727 C113.869318,10.7253788 113.909091,10.9640152 113.856061,11.7462121 C113.763258,12.9924242 113.285985,13.7613636 112.304924,14.2784091 L111.602273,14.6496212 L108.831439,14.6496212 L106.060606,14.6496212 L106.060606,9.6780303 Z M111.098485,12.8200758 C111.973485,12.3825758 112.172348,11.2556818 111.50947,10.5132576 L111.125,10.0757576 L109.547348,10.0757576 L107.982955,10.0757576 L107.943182,11.3882576 C107.929924,12.1174242 107.943182,12.7935606 107.969697,12.8863636 C108.075758,13.1647727 110.501894,13.125 111.098485,12.8200758 Z" id="Shape"></path>
                <path d="M124.859848,14.1325758 L123.971591,13.655303 L123.931818,12.7935606 L123.892045,11.9318182 L123.268939,11.8920455 L122.632576,11.8522727 L122.632576,11.1363636 L122.632576,10.4204545 L123.268939,10.3806818 L123.892045,10.3409091 L123.958333,7.86174242 C124.024621,5.39583333 124.024621,5.36931818 124.369318,5.02462121 C124.793561,4.60037879 125.61553,4.4280303 126.649621,4.53409091 L127.405303,4.61363636 L127.405303,5.35606061 L127.405303,6.11174242 L126.888258,6.05871212 C126.49053,6.01893939 126.304924,6.0719697 126.092803,6.28409091 C125.840909,6.53598485 125.814394,6.70833333 125.814394,8.48484848 L125.814394,10.407197 L126.543561,10.407197 L127.272727,10.407197 L127.272727,11.1363636 L127.272727,11.8655303 L126.543561,11.8655303 L125.827652,11.8655303 L125.787879,13.2443182 L125.748106,14.6231061 L124.859848,14.1325758 Z" id="Path"></path>
                <path d="M130.295455,14.1325758 L129.407197,13.655303 L129.367424,12.7935606 L129.327652,11.9318182 L128.704545,11.8920455 L128.068182,11.8522727 L128.068182,11.1363636 L128.068182,10.4204545 L128.704545,10.3806818 L129.327652,10.3409091 L129.393939,7.86174242 C129.460227,5.39583333 129.460227,5.36931818 129.804924,5.02462121 C130.229167,4.60037879 131.051136,4.4280303 132.085227,4.53409091 L132.840909,4.61363636 L132.840909,5.35606061 L132.840909,6.11174242 L132.323864,6.05871212 C131.926136,6.01893939 131.74053,6.0719697 131.528409,6.28409091 C131.276515,6.53598485 131.25,6.70833333 131.25,8.48484848 L131.25,10.407197 L131.979167,10.407197 L132.708333,10.407197 L132.708333,11.1363636 L132.708333,11.8655303 L131.979167,11.8655303 L131.263258,11.8655303 L131.223485,13.2443182 L131.183712,14.6231061 L130.295455,14.1325758 Z" id="Path"></path>
                <path d="M117.329545,12.0113636 C115.526515,11.4545455 114.545455,9.90340909 114.717803,7.86174242 C114.850379,6.25757576 115.857955,4.93181818 117.236742,4.56060606 C118.032197,4.34848485 119.530303,4.46780303 120.193182,4.8125 C121.784091,5.62121212 122.513258,7.76893939 121.876894,9.75757576 C121.558712,10.7386364 120.657197,11.6401515 119.702652,11.9185606 C118.973485,12.1439394 117.899621,12.1837121 117.329545,12.0113636 Z M119.410985,10.1155303 C119.875,9.69128788 120.113636,9.08143939 120.113636,8.28598485 C120.113636,6.42992424 118.589015,5.39583333 117.409091,6.44318182 C115.950758,7.71590909 116.799242,10.7121212 118.5625,10.4867424 C118.854167,10.4602273 119.225379,10.2878788 119.410985,10.1155303 Z" id="Shape"></path>
                <path d="M136.022727,12.0113636 C134.392045,11.4810606 133.503788,10.1685606 133.503788,8.3125 C133.503788,6.5625 134.073864,5.50189394 135.373106,4.85227273 C136.0625,4.50757576 136.354167,4.44128788 137.136364,4.44128788 C138.289773,4.44128788 138.833333,4.58712121 139.642045,5.10416667 L140.278409,5.50189394 L139.854167,6.09848485 C139.61553,6.42992424 139.390152,6.69507576 139.363636,6.69507576 C139.323864,6.69507576 138.979167,6.53598485 138.581439,6.35037879 C137.998106,6.05871212 137.746212,6.00568182 137.136364,6.05871212 C136.513258,6.11174242 136.327652,6.19128788 135.956439,6.57575758 C135.717803,6.82765152 135.479167,7.15909091 135.426136,7.33143939 L135.346591,7.62310606 L137.958333,7.62310606 L140.570076,7.62310606 L140.503788,8.72348485 C140.424242,10.2613636 139.893939,11.1628788 138.74053,11.7594697 C138.170455,12.0643939 136.606061,12.2102273 136.022727,12.0113636 Z M138.157197,10.1818182 C138.356061,9.98295455 138.568182,9.65151515 138.607955,9.45265152 L138.700758,9.08143939 L137.030303,9.08143939 C136.11553,9.08143939 135.359848,9.10795455 135.359848,9.14772727 C135.359848,9.50568182 136.11553,10.407197 136.55303,10.5795455 C136.99053,10.7651515 137.785985,10.5662879 138.157197,10.1818182 Z" id="Shape"></path>
                <path d="M157.566288,11.9583333 C156.876894,11.7727273 155.842803,11.2954545 155.723485,11.0965909 C155.670455,10.9905303 156.386364,9.87689394 156.505682,9.87689394 C156.518939,9.87689394 156.890152,10.0359848 157.314394,10.2348485 C158.202652,10.6458333 159.30303,10.7253788 159.6875,10.407197 C159.965909,10.1685606 160.191288,9.59848485 160.058712,9.46590909 C160.005682,9.41287879 159.382576,9.2405303 158.693182,9.08143939 C156.346591,8.56439394 155.511364,7.90151515 155.511364,6.5625 C155.511364,5.23674242 156.452652,4.44128788 157.99053,4.44128788 C158.905303,4.44128788 159.753788,4.77272727 160.045455,5.23674242 C160.284091,5.60795455 160.416667,5.56818182 160.416667,5.10416667 L160.416667,4.70643939 L161.676136,4.70643939 L162.935606,4.70643939 L162.935606,5.43560606 L162.935606,6.16477273 L162.484848,6.16477273 L162.034091,6.16477273 L161.981061,8.39204545 C161.941288,10.9109848 161.835227,11.2159091 160.907197,11.7329545 C160.270833,12.1041667 158.560606,12.2102273 157.566288,11.9583333 Z M160.151515,7.53030303 C160.151515,7 159.74053,6.25757576 159.356061,6.0719697 C158.825758,5.80681818 157.9375,5.85984848 157.632576,6.16477273 C157.049242,6.74810606 157.433712,7.26515152 158.719697,7.63636364 C159.939394,7.98106061 160.151515,7.96780303 160.151515,7.53030303 Z" id="Shape"></path>
                <path d="M166.965909,11.8787879 C166.674242,11.7462121 166.30303,11.467803 166.143939,11.2689394 L165.852273,10.8977273 L165.852273,11.3882576 L165.852273,11.8655303 L164.924242,11.8655303 L163.996212,11.8655303 L163.996212,8.28598485 L163.996212,4.70643939 L164.99053,4.70643939 L165.984848,4.70643939 L165.984848,7.02651515 C165.984848,9.49242424 166.077652,9.96969697 166.63447,10.2746212 C167.111742,10.5265152 167.774621,10.4337121 168.119318,10.0625 C168.424242,9.73106061 168.4375,9.66477273 168.477273,7.21212121 L168.517045,4.70643939 L169.445076,4.70643939 L170.359848,4.70643939 L170.359848,6.9469697 C170.359848,8.17992424 170.412879,9.34659091 170.479167,9.51893939 C170.67803,10.0359848 171.155303,10.407197 171.632576,10.407197 C172.75947,10.407197 172.878788,10.1022727 172.878788,7.09280303 L172.878788,4.70643939 L173.886364,4.70643939 L174.893939,4.70643939 L174.840909,7.66287879 C174.801136,10.3276515 174.774621,10.6458333 174.535985,11.0435606 C173.767045,12.3295455 171.659091,12.4753788 170.558712,11.3352273 L170.1875,10.9507576 L169.922348,11.2954545 C169.564394,11.7462121 168.702652,12.1306818 168.039773,12.1306818 C167.748106,12.1306818 167.270833,12.0113636 166.965909,11.8787879 Z" id="Path"></path>
                <path d="M144.839015,11.8125 C144.613636,11.719697 144.242424,11.4015152 144.003788,11.1231061 L143.592803,10.6060606 L143.579545,11.2424242 L143.579545,11.8655303 L142.717803,11.8655303 L141.856061,11.8655303 L141.856061,8.28598485 L141.856061,4.70643939 L142.770833,4.70643939 L143.672348,4.70643939 L143.738636,6.53598485 C143.831439,9.25378788 144.242424,9.98295455 145.780303,10.1155303 L146.496212,10.1685606 L146.496212,11.0833333 L146.496212,11.9981061 L145.873106,11.9981061 C145.515152,11.9848485 145.051136,11.905303 144.839015,11.8125 Z" id="Path"></path>
            </g>
        </g>
    </g>
</svg>